<svg t="1644831872830" width="200" height="200" class="icon" viewBox="0 0 1024 1024" version="1.1" xmlns="http://www.w3.org/2000/svg" p-id="951" width="200" height="200"><path d="M511.500488 512.499512m-511.500488 0a511.500488 511.500488 0 1 0 1023.000976 0 511.500488 511.500488 0 1 0-1023.000976 0Z" fill="#1BC1FA" p-id="952"></path><path d="M744.273171 231.973463H468.342634c0.299707 3.69639 0.499512 7.39278 0.499512 11.089171 0 95.207024-114.887805 172.331707-256.649366 172.331707-4.096 0-8.092098-0.099902-12.188097-0.199804-9.490732 34.266537-15.484878 67.633951-15.484878 95.906341 0 128.874146 69.931707 214.690341 186.517854 257.64839h279.826731c116.586146-42.958049 186.517854-128.874146 186.517854-257.64839 0.099902-85.816195-55.545756-218.986146-93.109073-279.127415z m-72.828878 331.076683s-58.243122 76.924878-138.364878 76.924878c-50.950244 0-106.795707-52.548683-106.795708-52.548683-4.395707-4.096-11.88839-4.89522-16.783609-1.698341l-61.739708 40.360585 10.090147-35.964878 6.693463-24.376195c1.798244-6.393756 1.798244-16.78361 0-23.177366l-6.793366-24.376195-9.990244-35.964878 61.639805 40.360586c4.89522 3.096976 12.387902 2.397659 16.78361-1.798244 0 0 55.745561-52.44878 106.795707-52.448781 80.221659 0 138.364878 76.924878 138.364878 76.924878 3.896195 4.795317 3.896195 12.887415 0.099903 17.782634z m-20.48-94.907317c-12.887415 0-23.277268-9.590634-23.277269-21.479024s10.389854-21.479024 23.277269-21.479025 23.277268 9.590634 23.277268 21.479025-10.389854 21.479024-23.277268 21.479024z m23.277268-75.126634c-19.281171 0-34.965854-14.385951-34.965854-32.168585 0-17.782634 15.684683-32.168585 34.965854-32.168586s34.965854 14.385951 34.965854 32.168586c0.099902 17.782634-15.58478 32.168585-34.965854 32.168585z" fill="#FFFFFF" p-id="953"></path><path d="M468.842146 243.062634c0-3.69639-0.199805-7.39278-0.499512-11.089171H277.828683c-25.175415 40.360585-58.542829 113.489171-77.824 183.221074 3.996098 0.099902 8.092098 0.199805 12.188097 0.199804 141.761561 0 256.649366-77.124683 256.649366-172.331707z" fill="#FFFFFF" opacity=".4" p-id="954"></path><path d="M696.519805 835.384195H328.778927c-11.388878 0-20.679805-9.290927-20.679805-20.679805 0-11.388878 9.290927-20.679805 20.679805-20.679805h367.740878c11.388878 0 20.679805 9.290927 20.679805 20.679805 0 11.388878-9.290927 20.679805-20.679805 20.679805z" fill="#FFFFFF" p-id="955"></path></svg>
