
<svg width="129px" height="128px" viewBox="0 0 129 128" version="1.1" xmlns="http://www.w3.org/2000/svg" xmlns:xlink="http://www.w3.org/1999/xlink">
    <g id="Page-1" stroke="none" stroke-width="1" fill="none" fill-rule="evenodd">
        <g id="忘记密码" transform="translate(0.085156, 0.001758)" fill="#000000" fill-rule="nonzero">
            <path d="M14.3225805,105.686368 C11.1636196,105.686368 8.59354827,103.416216 8.59354827,100.62235 L8.59354827,54.1328991 L100.261781,54.1328991 L100.261781,67.1518186 C103.18761,67.3755468 106.072876,67.9153537 108.855329,68.7595924 L108.855329,46.3999624 L0,46.3999624 L0,100.62235 C0,107.691402 6.41253807,113.418971 14.3225805,113.418971 L63.2885181,113.418971 C62.0911498,110.944888 61.2359291,108.347865 60.7420544,105.686201 L14.3223946,105.686201 L14.3225805,105.686368 Z M97.3972648,46.3999624 L88.8037166,46.3999624 L88.8037166,38.6655202 C88.8037166,21.2770757 72.6670665,7.73444218 54.4293376,7.73444218 C35.7413908,7.73444218 20.0549586,21.8464538 20.0549586,38.6655202 L20.0549586,46.3999624 L11.4614103,46.3999624 L11.4614103,38.6655202 C11.4614103,17.5834782 31.0003471,0 54.4310106,0 C77.5653704,0 97.4006108,16.866403 97.4006108,38.6655202 L97.4006108,46.3999624 L97.3972648,46.3999624 Z" id="Shape"></path>
            <path d="M52.9944771,67.0208483 L55.8608521,67.0208483 C58.2329566,67.0217713 60.155671,68.7518957 60.1566968,70.8863967 L60.1566968,88.9311982 C60.1556704,91.0677716 58.2300549,92.7990836 55.8556473,92.7982524 L52.9911312,92.7982524 C50.617575,92.7982524 48.6934276,91.0668382 48.6934276,88.931031 L48.6934276,70.8880694 C48.6971166,68.7524633 50.6211424,67.0225058 52.9944771,67.0208483 L52.9944771,67.0208483 Z M97.0842314,72.3632001 C80.0068081,72.3632001 66.168277,84.8187632 66.168277,100.180931 C66.168277,115.54611 80.008667,128 97.0842314,128 C114.157937,128 128,115.544437 128,100.180931 C128,84.8187632 114.157937,72.3632001 97.0842314,72.3632001 L97.0842314,72.3632001 Z M97.4006108,120.413422 C84.4569389,120.413422 73.9649284,110.975362 73.9649284,99.3251912 C73.9649284,87.6795367 84.4552659,78.2384657 97.4006108,78.2384657 C110.345956,78.2384657 120.836293,87.6780313 120.836293,99.3251912 C120.836293,110.975362 110.345956,120.413422 97.4006108,120.413422 Z" id="Shape"></path>
            <polygon id="Path" points="96.4107634 108.782989 99.1823361 108.782989 99.1823361 111.037753 96.4107634 111.037753"></polygon>
            <path d="M94.7188215,107.260354 L100.874278,107.260354 L100.874278,112.560387 L94.7188215,112.560387 L94.7188215,107.260354 Z M98.6527445,85.8768965 C93.4650148,85.7992844 90.1657094,88.0936906 88.7613344,92.7601151 L91.0031296,92.7601151 C92.2333286,88.9631463 94.7812795,87.104137 98.6525586,87.1832544 C102.432567,87.4191014 104.500187,89.1610236 104.851885,92.4053411 C105.115844,94.2248753 103.665927,96.0457476 100.500274,97.8636092 C97.7744292,99.4484673 96.4548186,101.347119 96.5427431,103.560735 L96.5427431,104.746828 L98.7845383,104.746828 L98.7845383,103.679662 C98.6966138,101.701893 99.6643407,100.159521 101.686232,99.0512073 C105.643762,97.1527229 107.489805,94.8581494 107.225845,92.1679887 C106.784364,88.2124504 103.928213,86.1145834 98.6527445,85.8770637 L98.6527445,85.8768965 Z" id="Shape"></path>
            <path d="M100.476666,106.270801 L94.8508011,106.270801 L94.8508011,103.562408 C94.7424291,100.840132 96.3328768,98.474135 99.581621,96.5861884 C101.342899,95.5752246 103.386724,94.0679785 103.175371,92.604891 C102.896169,90.0410171 101.510383,88.8915559 98.5358217,88.7042164 L98.4190848,88.7042164 C96.5563128,88.7042164 93.9302895,89.170056 92.6290817,93.1864796 L92.273852,94.2842552 L86.5515117,94.2842552 L87.1301774,92.3628551 C88.7072413,87.1238745 92.6038011,84.3529237 98.4004961,84.3529237 L98.6813711,84.3544291 C106.478023,84.7046869 108.542296,88.7134161 108.911095,92.0156081 C109.239371,95.3788527 107.075277,98.1909514 102.483129,100.395535 C101.078939,101.168979 100.412349,102.20587 100.474807,103.618777 L100.476666,106.270801 Z" id="Path"></path>
        </g>
    </g>
</svg>